<?xml version="1.0" encoding="utf-8"?>
<!-- Generator: Adobe Illustrator 24.0.2, SVG Export Plug-In . SVG Version: 6.00 Build 0)  -->
<svg version="1.1" id="Слой_1" xmlns="http://www.w3.org/2000/svg" xmlns:xlink="http://www.w3.org/1999/xlink" x="0px" y="0px"
	 viewBox="0 0 544.92 500.09" style="enable-background:new 0 0 544.92 500.09;" xml:space="preserve">
<g>
	<path d="M272.78,40.29c16.49-14.06,34.69-24.52,54.96-31.39c96.74-32.82,199.46,28.88,214.95,129.88
		c8.28,53.95-6.46,101.76-44.86,140.7c-71.36,72.37-143.58,143.9-215.45,215.76c-6.43,6.43-12.78,6.48-19.12,0.13
		c-72.11-72.09-144.87-143.54-216.04-216.55C2.45,232.9-10.4,176.81,8.31,115.74C27.04,54.64,69.85,16.83,132.3,3.74
		c50.59-10.6,96.78,1.56,137.32,34.03C270.53,38.5,271.44,39.22,272.78,40.29z M271.86,471.54c71.09-70.89,141.8-140.17,211-210.93
		c35.3-36.1,46.09-81.09,34.05-129.96c-26-105.49-155.29-142.47-233.95-67.53c-7.43,7.08-12.91,7.06-20.32,0.13
		c-34.87-32.6-76.11-44.96-122.94-37.04C77.76,36.69,29.97,88.9,24.9,151.09c-3.64,44.6,10.46,82.95,42.2,114.69
		c66.94,66.93,133.87,133.86,200.78,200.81C269.39,468.1,270.58,469.93,271.86,471.54z"/>
</g>
</svg>
