<?xml version="1.0" encoding="utf-8"?>
<!-- Generator: Adobe Illustrator 24.0.2, SVG Export Plug-In . SVG Version: 6.00 Build 0)  -->
<svg version="1.1" id="Слой_1" xmlns="http://www.w3.org/2000/svg" xmlns:xlink="http://www.w3.org/1999/xlink" x="0px" y="0px"
	 viewBox="0 0 544.05 499.59" style="enable-background:new 0 0 544.05 499.59;" xml:space="preserve">
<style type="text/css">
	.st0{fill:url(#SVGID_1_);}
</style>
<g>
	<radialGradient id="SVGID_1_" cx="272.026" cy="249.7937" r="261.1465" gradientUnits="userSpaceOnUse">
		<stop  offset="0" style="stop-color:#FF4915"/>
		<stop  offset="1" style="stop-color:#E93400"/>
	</radialGradient>
	<path class="st0" d="M272.46,39.9c21.49-18.27,45.92-30.48,73.54-36.23c87.32-18.2,174.67,35.55,193.74,124.27
		c12.69,59.05-2.68,110.87-45.36,153.82c-70.36,70.8-141.1,141.23-211.69,211.81c-7.97,7.97-13.28,8.02-21.12,0.18
		c-70.7-70.7-141.34-141.47-212.14-212.07c-26.77-26.7-42.99-58.63-47.96-95.97C-9.82,100.87,44.88,22.36,128.52,4.17
		c50.71-11.03,97.02-0.08,138.2,31.77c1.58,1.22,3.14,2.46,4.72,3.68C271.56,39.71,271.75,39.71,272.46,39.9z"/>
</g>
</svg>
